<?xml version="1.0" encoding="utf-8"?>
<!-- Generator: Adobe Illustrator 22.1.0, SVG Export Plug-In . SVG Version: 6.00 Build 0)  -->
<svg version="1.1" id="Layer_1" xmlns="http://www.w3.org/2000/svg" xmlns:xlink="http://www.w3.org/1999/xlink" x="0px" y="0px"
	 viewBox="0 0 328.6 86.3" style="enable-background:new 0 0 328.6 86.3;" xml:space="preserve">
<style type="text/css">
	.st0{fill:#353635;}
	.st1{fill:#353635;stroke:#353635;stroke-miterlimit:10;}
	.st2{fill:#48B549;}
	.st3{fill:#246A36;}
	.st4{fill:#2CAC4A;}
	.st5{fill:#065C9A;}
	.st6{fill:#FFFFFF;}
</style>
<g>
	<path class="st0" d="M120.1,13.5c8.1,0,14.1,1.3,18.1,4c4,2.6,6.1,6.9,6.1,12.6s-2,10-6,12.6c-4,2.6-10,4-18.1,4s-14.2-1.3-18.2-4
		c-4-2.6-6-6.9-6-12.6s2-9.9,6-12.6C106,14.9,112,13.5,120.1,13.5z M120.1,38.4c2.6,0,4.7-0.1,6.5-0.3c1.8-0.3,3.3-0.7,4.3-1.2
		c1-0.7,2-1.4,2.3-2.5c0.5-1,0.8-2.5,0.8-4.2s-0.3-3.1-0.8-4.2s-1.3-2-2.3-2.5c-1.2-0.7-2.6-1-4.3-1.2c-1.8-0.3-3.9-0.3-6.5-0.3
		c-2.6,0-4.7,0.1-6.5,0.3c-1.8,0.3-3.3,0.7-4.3,1.2c-1.2,0.7-2,1.4-2.3,2.5c-0.5,1-0.8,2.5-0.8,4.2s0.3,3.1,0.8,4.2
		c0.5,1,1.3,2,2.3,2.5c1,0.7,2.6,1,4.3,1.2C115.4,38.2,117.5,38.4,120.1,38.4z"/>
	<path class="st0" d="M159.8,46.5h-10.3v-33h10.3V46.5z"/>
	<path class="st0" d="M207.1,46.5h-37.5c-1.3,0-2.3-0.4-3.4-1c-0.9-0.7-1.4-1.7-1.4-3.1c0-0.8,0.1-1.4,0.7-2.2
		c0.4-0.7,0.9-1.3,1.6-2l12.1-9.5c1.4-1,2.6-2.1,3.5-2.7c1-0.8,1.8-1.4,2.6-2c0.8-0.5,1.3-1,1.8-1.3c0.5-0.4,0.9-0.7,1.2-0.8
		c-0.5,0-1,0.1-1.6,0.1c-0.7,0-1.4,0-2.2,0.1c-0.9,0-2,0-3.1,0c-1.2,0-2.6,0-4.3,0h-9.9v-8.6h33.6c1.3,0,2.3,0.4,3.4,1
		c0.9,0.7,1.4,1.7,1.4,3.1c0,0.8-0.3,1.4-0.7,2.2c-0.4,0.7-0.9,1.3-1.7,1.8L191,31.5c-1.3,1-2.5,2-3.5,2.7c-1,0.8-1.8,1.4-2.6,2
		c-0.7,0.5-1.3,1-1.7,1.3c-0.5,0.4-0.9,0.7-1.2,0.8c0.4,0,1,0,2-0.1c0.9,0,2.1,0,3.3,0c1.2,0,2.5,0,3.9,0s2.7,0,4,0h12V46.5z"/>
	<path class="st0" d="M233.7,13.5c8.1,0,14.1,1.3,18.1,4c4,2.6,6.1,6.9,6.1,12.6s-2,10-6,12.6s-10,4-18.1,4s-14.2-1.3-18.2-4
		c-4-2.6-6-6.9-6-12.6s2-9.9,6-12.6C219.6,14.9,225.6,13.5,233.7,13.5z M233.7,38.4c2.6,0,4.8-0.1,6.5-0.3c1.8-0.3,3.3-0.7,4.3-1.2
		c1-0.7,2-1.4,2.3-2.5c0.5-1,0.8-2.5,0.8-4.2s-0.3-3.1-0.8-4.2s-1.3-2-2.3-2.5c-1-0.7-2.6-1-4.3-1.2c-1.8-0.3-3.9-0.3-6.5-0.3
		c-2.6,0-4.7,0.1-6.5,0.3c-1.8,0.3-3.3,0.7-4.3,1.2c-1,0.7-2,1.4-2.3,2.5c-0.5,1-0.8,2.5-0.8,4.2s0.3,3.1,0.8,4.2
		c0.5,1,1.3,2,2.3,2.5c1,0.7,2.6,1,4.3,1.2C229,38.2,231.2,38.4,233.7,38.4z"/>
	<path class="st0" d="M284.4,26.3c0.8,1.3,1.3,2.3,2,3.4c0.5,0.9,1,1.8,1.4,2.6c0.4,0.8,0.8,1.4,1,2.1s0.7,1.2,0.9,1.8
		c0.3-0.5,0.5-1.2,0.9-1.8c0.3-0.7,0.7-1.3,1-2.1c0.4-0.8,0.9-1.6,1.4-2.6c0.5-0.9,1.2-2.1,2-3.3l5.3-9.2c0.7-1,1.3-1.8,2.2-2.5
		s2.1-0.9,3.4-0.9s2.5,0.4,3.5,1c1,0.8,1.8,1.8,2.2,3.4l8.3,28.6h-10.1l-3.1-11.3c-0.5-1.8-0.9-3.5-1.3-4.8c-0.4-1.4-0.7-2.7-0.9-4
		c-0.5,1.2-1.2,2.3-1.8,3.8c-0.7,1.4-1.6,3.1-2.7,5.2l-4.4,7.7c-0.4,0.8-0.9,1.4-1.3,2c-0.4,0.5-0.9,0.8-1.3,1
		c-0.5,0.3-0.9,0.4-1.4,0.5c-0.5,0.1-1.2,0.1-1.7,0.1c-0.5,0-1.2,0-1.7-0.1c-0.5-0.1-1-0.3-1.4-0.5c-0.5-0.3-0.9-0.7-1.3-1
		c-0.4-0.5-0.9-1-1.3-2l-4.4-7.7c-0.7-1-1.2-2.1-1.6-3c-0.5-0.9-0.9-1.7-1.3-2.3c-0.4-0.7-0.7-1.3-1-2c-0.3-0.5-0.5-1.2-0.8-1.7
		c-0.3,1.3-0.5,2.6-0.9,4s-0.8,3-1.3,4.9l-3.1,11.3h-10l8.6-28.6c0.5-1.6,1.2-2.6,2.3-3.4c1-0.8,2.2-1,3.5-1c1.3,0,2.5,0.3,3.4,0.9
		c0.9,0.7,1.7,1.4,2.2,2.5L284.4,26.3z"/>
</g>
<g>
	<path class="st1" d="M98.1,65.3V70h-0.8V59.2h2.6c1.3,0,2.3,0.3,3,0.8c0.7,0.5,0.9,1.2,0.9,2.2c0,0.8-0.1,1.3-0.5,1.8
		s-0.9,0.9-1.7,1l2.9,4.9h-0.9l-2.7-4.7C100.8,65.3,98.1,65.3,98.1,65.3z M98.1,64.6h2.1c0.9,0,1.6-0.3,2.1-0.7
		c0.5-0.4,0.8-1,0.8-1.8c0-0.8-0.3-1.4-0.8-1.8c-0.5-0.4-1.3-0.5-2.3-0.5h-1.8C98.1,59.8,98.1,64.6,98.1,64.6z"/>
	<path class="st1" d="M115.1,70h-5.9V59.2h5.9v0.7h-5.1v4h4.8v0.7h-4.8v4.6h5.1V70z"/>
	<path class="st1" d="M128.7,64.5c0,1.8-0.5,3.1-1.4,4c-0.9,0.9-2.3,1.4-4.2,1.4h-2.6V59.2h2.9c1.7,0,3,0.4,3.9,1.3
		C128.3,61.4,128.7,62.7,128.7,64.5z M127.9,64.5c0-1.6-0.4-2.7-1.2-3.5c-0.8-0.8-2-1.2-3.4-1.2h-2v9.4h1.8
		C126.3,69.3,127.9,67.6,127.9,64.5z"/>
	<path class="st1" d="M140.1,70h-5.9V59.2h5.9v0.7H135v4h4.8v0.7H135v4.6h5.1V70z"/>
	<path class="st1" d="M146.2,70h-0.8V59.2h5.9v0.7h-5.1v4.6h4.8V65h-4.8V70z"/>
	<path class="st1" d="M156.1,70V59.2h0.8V70H156.1z"/>
	<path class="st1" d="M170.7,70h-0.8l-6.4-9.5l0,0c0,1.2,0.1,2,0.1,2.6v7h-0.8V59.3h0.8l6.4,9.5l0,0c0-0.9-0.1-1.7-0.1-2.5v-7h0.8
		V70z"/>
	<path class="st1" d="M176.7,70V59.2h0.8V70H176.7z"/>
	<path class="st1" d="M191.4,70h-0.8l-6.4-9.5l0,0c0,1.2,0.1,2,0.1,2.6v7h-0.8V59.3h0.8l6.4,9.5l0,0c0-0.9-0.1-1.7-0.1-2.5v-7h0.8
		V70z"/>
	<path class="st1" d="M201.7,64.5h3.9v4.9c-1,0.4-2.2,0.7-3.5,0.7c-1.7,0-3-0.5-3.9-1.4c-0.9-0.9-1.3-2.3-1.3-4c0-1,0.3-2.1,0.7-2.9
		c0.4-0.8,1-1.6,2-2c0.8-0.5,1.8-0.7,2.9-0.7c1.2,0,2.2,0.3,3.1,0.7l-0.3,0.7c-0.9-0.4-2-0.7-2.9-0.7c-1.4,0-2.6,0.4-3.4,1.3
		c-0.8,0.9-1.3,2.1-1.3,3.5c0,1.6,0.4,2.9,1.2,3.6c0.8,0.8,2,1.2,3.5,1.2c1,0,1.8-0.1,2.5-0.4v-3.8h-3.3v-0.8H201.7z"/>
	<path class="st1" d="M219,65.3V70h-0.8V59.2h2.6c1.3,0,2.3,0.3,3,0.8c0.7,0.5,0.9,1.2,0.9,2.2c0,0.8-0.1,1.3-0.5,1.8
		c-0.4,0.5-0.9,0.9-1.7,1l2.9,4.9h-0.9l-2.7-4.7C221.7,65.3,219,65.3,219,65.3z M219,64.6h2.1c0.9,0,1.6-0.3,2.1-0.7
		c0.5-0.4,0.8-1,0.8-1.8c0-0.8-0.3-1.4-0.8-1.8c-0.5-0.4-1.3-0.5-2.3-0.5H219L219,64.6L219,64.6z"/>
	<path class="st1" d="M236,70h-5.9V59.2h5.9v0.7h-5.1v4h4.8v0.7h-4.8v4.6h5.1V70z"/>
	<path class="st1" d="M247.3,67.1c0,0.9-0.4,1.6-1,2.1s-1.6,0.8-2.6,0.8c-1.3,0-2.3-0.1-3-0.4v-0.8c0.8,0.4,1.8,0.5,3,0.5
		c0.9,0,1.6-0.3,2.1-0.7c0.5-0.4,0.8-0.9,0.8-1.6c0-0.4-0.1-0.8-0.3-1c-0.1-0.3-0.4-0.5-0.8-0.8c-0.4-0.3-0.9-0.5-1.7-0.7
		c-1-0.4-1.8-0.8-2.2-1.2c-0.4-0.4-0.7-1-0.7-1.7c0-0.8,0.3-1.4,0.9-2s1.4-0.8,2.5-0.8c1,0,2,0.1,2.9,0.5l-0.3,0.7
		c-0.9-0.4-1.7-0.5-2.6-0.5c-0.8,0-1.4,0.1-2,0.5c-0.5,0.4-0.7,0.9-0.7,1.6c0,0.4,0.1,0.8,0.3,1s0.4,0.5,0.7,0.7
		c0.4,0.3,0.9,0.4,1.7,0.8c0.8,0.3,1.4,0.5,2,0.8c0.4,0.3,0.8,0.5,0.9,0.9C247.3,66.2,247.3,66.7,247.3,67.1z"/>
	<path class="st1" d="M261.6,64.5c0,1.7-0.4,3-1.3,4s-2.1,1.4-3.5,1.4c-1.4,0-2.6-0.5-3.5-1.4c-0.9-1-1.3-2.3-1.3-4s0.4-3,1.3-4
		c0.9-1,2.1-1.4,3.5-1.4c1.6,0,2.7,0.5,3.5,1.4C261.2,61.5,261.6,62.8,261.6,64.5z M252.9,64.5c0,1.6,0.4,2.7,1,3.5s1.7,1.3,3,1.3
		c1.3,0,2.3-0.4,3-1.3c0.7-0.8,1-2.1,1-3.5c0-1.6-0.4-2.7-1-3.5c-0.7-0.8-1.7-1.3-3-1.3c-1.3,0-2.2,0.4-3,1.3
		C253.2,61.8,252.9,63.1,252.9,64.5z"/>
	<path class="st1" d="M275,59.2v7c0,1.2-0.4,2.2-1,2.9s-1.7,1-3,1s-2.2-0.4-2.9-1s-1-1.7-1-2.9v-6.9h0.8v6.9c0,1,0.3,1.8,0.9,2.5
		c0.5,0.5,1.4,0.9,2.5,0.9s1.8-0.3,2.3-0.9c0.5-0.5,0.8-1.3,0.8-2.3v-7h0.7V59.2z"/>
	<path class="st1" d="M281.8,65.3V70H281V59.2h2.6c1.3,0,2.3,0.3,3,0.8c0.7,0.5,0.9,1.2,0.9,2.2c0,0.8-0.1,1.3-0.5,1.8
		s-0.9,0.9-1.7,1l2.9,4.9h-0.9l-2.7-4.7C284.5,65.3,281.8,65.3,281.8,65.3z M281.8,64.6h2.1c0.9,0,1.6-0.3,2.1-0.7
		c0.5-0.4,0.8-1,0.8-1.8c0-0.8-0.3-1.4-0.8-1.8c-0.5-0.4-1.3-0.5-2.3-0.5h-1.8L281.8,64.6L281.8,64.6z"/>
	<path class="st1" d="M297.5,59.7c-1.3,0-2.3,0.4-3.1,1.3c-0.8,0.9-1.2,2.1-1.2,3.5c0,1.6,0.4,2.7,1,3.5c0.8,0.9,1.8,1.3,3.1,1.3
		c0.9,0,1.7-0.1,2.5-0.4v0.7c-0.7,0.3-1.6,0.4-2.6,0.4c-1.6,0-2.7-0.5-3.5-1.4c-0.9-0.9-1.3-2.3-1.3-4c0-1,0.3-2.1,0.7-2.9
		c0.4-0.8,1-1.4,1.8-2c0.8-0.4,1.7-0.7,2.7-0.7s2,0.3,2.9,0.7l-0.3,0.7C299.2,60,298.3,59.7,297.5,59.7z"/>
	<path class="st1" d="M311.2,70h-5.9V59.2h5.9v0.7h-5.1v4h4.8v0.7h-4.8v4.6h5.1V70z"/>
	<path class="st1" d="M322.5,67.1c0,0.9-0.4,1.6-1,2.1s-1.6,0.8-2.6,0.8c-1.3,0-2.3-0.1-3-0.4v-0.8c0.8,0.4,1.8,0.5,3,0.5
		c0.9,0,1.6-0.3,2.1-0.7c0.5-0.4,0.8-0.9,0.8-1.6c0-0.4-0.1-0.8-0.3-1s-0.4-0.5-0.8-0.8c-0.4-0.3-0.9-0.5-1.7-0.7
		c-1-0.4-1.8-0.8-2.2-1.2c-0.4-0.4-0.7-1-0.7-1.7c0-0.8,0.3-1.4,0.9-2s1.4-0.8,2.5-0.8c1,0,2,0.1,2.9,0.5l-0.3,0.7
		c-0.9-0.4-1.7-0.5-2.6-0.5c-0.8,0-1.4,0.1-2,0.5c-0.5,0.4-0.7,0.9-0.7,1.6c0,0.4,0.1,0.8,0.3,1s0.4,0.5,0.7,0.7
		c0.4,0.3,0.9,0.4,1.7,0.8c0.8,0.3,1.4,0.5,2,0.8c0.4,0.3,0.8,0.5,0.9,0.9C322.4,66.2,322.5,66.7,322.5,67.1z"/>
</g>
<g>
	<circle class="st2" cx="45.5" cy="43.5" r="40.5"/>
	<g>
		<g>
			<path class="st3" d="M46,70.8c-15.1,0-27.3-12.2-27.3-27.3S30.9,16.2,46,16.2s27.3,12.2,27.3,27.3S61,70.8,46,70.8z M46,16.9
				c-14.7,0-26.6,11.9-26.6,26.6S31.3,70.1,46,70.1s26.6-11.9,26.6-26.6C72.6,28.9,60.6,16.9,46,16.9z"/>
		</g>
		<path class="st4" d="M46,71.8c-15.6,0-28.2-12.7-28.2-28.2C17.8,28,30.5,15.4,46,15.4c10.4,0,19.9,5.7,24.9,14.8
			c0.4,0.7,0.1,1.5-0.6,1.9c-0.7,0.4-1.5,0.1-1.9-0.6C63.9,23.2,55.3,18,46,18c-14.1,0-25.5,11.4-25.5,25.5S31.9,69,46,69
			c0.8,0,1.4,0.6,1.4,1.4C47.4,71.1,46.7,71.8,46,71.8z"/>
		<g>
			<path class="st5" d="M40.8,47c3.9,0,7.8,0,11.7,0c4.3,0,8.1-3,9.1-7.2c1.1-4.6-1.3-9.2-5.7-11c-3.5-1.4-7.4-0.6-10.1,2.1
				c-0.2,0.2-0.5,0.4-0.8,0.3c-0.3,0-0.6-0.2-0.7-0.6c-0.1-0.3,0-0.6,0.2-0.9c0.8-0.8,1.7-1.5,2.7-2c6.3-3.3,14.1,0.1,15.9,7
				c1.4,5.4-1.4,11-6.5,13.1c-1.3,0.5-2.7,0.8-4.2,0.8c-8,0-16.1,0-24.1,0c-0.6,0-0.9-0.4-0.9-0.9c0-0.4,0.3-0.8,0.8-0.8
				c0.1,0,0.2,0,0.3,0C32.6,47,36.7,47,40.8,47z"/>
			<path class="st5" d="M41.2,44.6c-4.3,0-8.5,0-12.8,0c-0.5,0-0.8-0.2-0.9-0.7s0.2-1,0.7-1c0.1,0,0.2,0,0.3,0c8.4,0,16.8,0,25.2,0
				c1.7,0,2.9-0.8,3.7-2.3c0.8-1.7,0.2-3.7-1.4-4.8c-1.5-1.1-3.6-0.9-5,0.4c-0.2,0.2-0.4,0.3-0.6,0.3c-0.4,0-0.7-0.2-0.8-0.5
				c-0.2-0.3-0.1-0.7,0.2-1c0.6-0.7,1.4-1.1,2.3-1.4c2.7-0.9,5.6,0.4,6.8,2.9c1.2,2.6,0.3,5.6-2,7.2c-0.9,0.6-2,0.9-3.1,0.9
				C49.5,44.6,45.3,44.6,41.2,44.6z"/>
			<path class="st5" d="M39.3,52.6c-3.6,0-7.3,0-10.9,0c-0.2,0-0.3,0-0.5-0.1c-0.3-0.1-0.5-0.5-0.5-0.9c0.1-0.4,0.4-0.6,0.7-0.7
				c0.1,0,0.1,0,0.2,0c7.2,0,14.4,0,21.6,0c2.1,0,3.7,1,4.6,2.9c1.3,2.8-0.5,6.2-3.6,6.7c-1.6,0.3-3.1-0.2-4.3-1.3
				c-0.4-0.4-0.4-0.9-0.1-1.2c0.3-0.3,0.9-0.3,1.2,0c1.5,1.5,4.1,1.1,5.1-0.8c1.1-2-0.3-4.5-2.6-4.6c-0.1,0-0.3,0-0.4,0
				C46.4,52.6,42.8,52.6,39.3,52.6z"/>
			<path class="st5" d="M36.6,40.6c-2.8,0-5.5,0-8.3,0c-0.5,0-0.8-0.3-0.9-0.7c-0.1-0.5,0.3-1,0.8-1c0.1,0,0.2,0,0.3,0
				c5.4,0,10.8,0,16.2,0c1,0,1.8-0.5,2.1-1.4c0.4-1,0-2-0.8-2.6c-0.9-0.6-2-0.5-2.8,0.2c-0.2,0.2-0.4,0.3-0.7,0.3s-0.6-0.2-0.7-0.6
				c-0.1-0.3,0-0.6,0.2-0.9c0.7-0.7,1.6-1.1,2.6-1.2c2.2-0.1,4,1.6,4.1,3.8s-1.7,4-3.9,4s-4.4,0-6.6,0
				C37.7,40.6,37.2,40.6,36.6,40.6z"/>
		</g>
	</g>
	<g>
		<g>
			<path class="st6" d="M46,70.8c-15.1,0-27.3-12.2-27.3-27.3S30.9,16.2,46,16.2s27.3,12.2,27.3,27.3S61,70.8,46,70.8z M46,16.9
				c-14.7,0-26.6,11.9-26.6,26.6S31.3,70.1,46,70.1s26.6-11.9,26.6-26.6C72.6,28.9,60.6,16.9,46,16.9z"/>
		</g>
		<path class="st6" d="M46,71.8c-15.6,0-28.2-12.7-28.2-28.2C17.8,28,30.5,15.4,46,15.4c10.4,0,19.9,5.7,24.9,14.8
			c0.4,0.7,0.1,1.5-0.6,1.9c-0.7,0.4-1.5,0.1-1.9-0.6C63.9,23.2,55.3,18,46,18c-14.1,0-25.5,11.4-25.5,25.5S31.9,69,46,69
			c0.8,0,1.4,0.6,1.4,1.4C47.4,71.1,46.7,71.8,46,71.8z"/>
		<g>
			<path class="st6" d="M40.8,47c3.9,0,7.8,0,11.7,0c4.3,0,8.1-3,9.1-7.2c1.1-4.6-1.3-9.2-5.7-11c-3.5-1.4-7.4-0.6-10.1,2.1
				c-0.2,0.2-0.5,0.4-0.8,0.3c-0.3,0-0.6-0.2-0.7-0.6c-0.1-0.3,0-0.6,0.2-0.9c0.8-0.8,1.7-1.5,2.7-2c6.3-3.3,14.1,0.1,15.9,7
				c1.4,5.4-1.4,11-6.5,13.1c-1.3,0.5-2.7,0.8-4.2,0.8c-8,0-16.1,0-24.1,0c-0.6,0-0.9-0.4-0.9-0.9c0-0.4,0.3-0.8,0.8-0.8
				c0.1,0,0.2,0,0.3,0C32.6,47,36.7,47,40.8,47z"/>
			<path class="st6" d="M41.2,44.6c-4.3,0-8.5,0-12.8,0c-0.5,0-0.8-0.2-0.9-0.7s0.2-1,0.7-1c0.1,0,0.2,0,0.3,0c8.4,0,16.8,0,25.2,0
				c1.7,0,2.9-0.8,3.7-2.3c0.8-1.7,0.2-3.7-1.4-4.8c-1.5-1.1-3.6-0.9-5,0.4c-0.2,0.2-0.4,0.3-0.6,0.3c-0.4,0-0.7-0.2-0.8-0.5
				c-0.2-0.3-0.1-0.7,0.2-1c0.6-0.7,1.4-1.1,2.3-1.4c2.7-0.9,5.6,0.4,6.8,2.9c1.2,2.6,0.3,5.6-2,7.2c-0.9,0.6-2,0.9-3.1,0.9
				C49.5,44.6,45.3,44.6,41.2,44.6z"/>
			<path class="st6" d="M39.3,52.6c-3.6,0-7.3,0-10.9,0c-0.2,0-0.3,0-0.5-0.1c-0.3-0.1-0.5-0.5-0.5-0.9c0.1-0.4,0.4-0.6,0.7-0.7
				c0.1,0,0.1,0,0.2,0c7.2,0,14.4,0,21.6,0c2.1,0,3.7,1,4.6,2.9c1.3,2.8-0.5,6.2-3.6,6.7c-1.6,0.3-3.1-0.2-4.3-1.3
				c-0.4-0.4-0.4-0.9-0.1-1.2c0.3-0.3,0.9-0.3,1.2,0c1.5,1.5,4.1,1.1,5.1-0.8c1.1-2-0.3-4.5-2.6-4.6c-0.1,0-0.3,0-0.4,0
				C46.4,52.6,42.8,52.6,39.3,52.6z"/>
			<path class="st6" d="M36.6,40.6c-2.8,0-5.5,0-8.3,0c-0.5,0-0.8-0.3-0.9-0.7c-0.1-0.5,0.3-1,0.8-1c0.1,0,0.2,0,0.3,0
				c5.4,0,10.8,0,16.2,0c1,0,1.8-0.5,2.1-1.4c0.4-1,0-2-0.8-2.6c-0.9-0.6-2-0.5-2.8,0.2c-0.2,0.2-0.4,0.3-0.7,0.3s-0.6-0.2-0.7-0.6
				c-0.1-0.3,0-0.6,0.2-0.9c0.7-0.7,1.6-1.1,2.6-1.2c2.2-0.1,4,1.6,4.1,3.8s-1.7,4-3.9,4s-4.4,0-6.6,0
				C37.7,40.6,37.2,40.6,36.6,40.6z"/>
		</g>
	</g>
</g>
</svg>
